<svg width="21" height="21" viewBox="0 0 21 21" fill="none" xmlns="http://www.w3.org/2000/svg">
<path fill-rule="evenodd" clip-rule="evenodd" d="M9.36469 4.59375C9.21918 4.59375 9.08495 4.67179 9.01294 4.79817L6.08523 9.93729C5.69714 10.6185 5.53427 11.4049 5.61991 12.1843L5.92892 14.9962C5.98389 15.4965 6.37665 15.8928 6.87645 15.9523L8.72887 16.1726C9.95173 16.3181 11.1916 16.192 12.3602 15.8033C12.9373 15.6114 13.3995 15.1734 13.6222 14.6074L15.1133 10.8181C15.1498 10.7256 15.175 10.6289 15.1883 10.5302C15.3014 9.6971 14.5722 8.9943 13.7438 9.13824L10.755 9.65729C9.81085 9.82126 8.99544 8.98818 9.17972 8.04776L9.76194 5.07638C9.81094 4.82633 9.61949 4.59375 9.36469 4.59375ZM7.87254 4.14847C8.17799 3.61231 8.74761 3.28126 9.36469 3.28125C10.4457 3.28124 11.2578 4.26797 11.0499 5.32876L10.4677 8.30014C10.4652 8.31287 10.4665 8.32065 10.4683 8.32623C10.4704 8.33311 10.4749 8.34116 10.4822 8.34864C10.4895 8.35611 10.4975 8.36071 10.5043 8.36302C10.5098 8.3649 10.5176 8.3664 10.5304 8.36418L13.5192 7.84507C15.2221 7.5493 16.7214 8.99404 16.4889 10.7068C16.4614 10.9096 16.4096 11.1083 16.3347 11.2988L14.8436 15.0881C14.4785 16.0159 13.7206 16.734 12.7744 17.0488C11.4227 17.4983 9.98839 17.6442 8.57383 17.4759L6.72141 17.2556C5.61523 17.124 4.74594 16.2469 4.62427 15.1396L4.31527 12.3276C4.1994 11.2732 4.41974 10.2092 4.94481 9.28751L7.87254 4.14847Z" fill="black"/>
</svg>
