<svg width="31" height="31" viewBox="0 0 31 31" fill="none" xmlns="http://www.w3.org/2000/svg">
<path d="M15.6566 0.967226C17.1954 0.943726 18.7229 0.955946 20.2495 0.943726C20.3002 2.85287 21.0748 4.57119 22.3071 5.84395L22.3053 5.84207C23.6316 7.03681 25.3574 7.81137 27.26 7.94297L27.2863 7.94485V12.6787C25.489 12.6336 23.7989 12.219 22.2752 11.5065L22.3523 11.5385C21.6153 11.1841 20.9921 10.8203 20.3999 10.4142L20.4488 10.4462C20.4375 13.8762 20.46 17.3063 20.4253 20.7241C20.3284 22.466 19.7494 24.0546 18.8207 25.3809L18.8395 25.3518C17.2866 27.5758 14.7712 29.0356 11.9107 29.1221H11.8976C11.782 29.1277 11.6457 29.1306 11.5084 29.1306C9.88222 29.1306 8.36224 28.6775 7.06692 27.8907L7.10452 27.9123C4.747 26.4939 3.1208 24.0668 2.82 21.244L2.81624 21.2054C2.79274 20.6179 2.78146 20.0304 2.80496 19.4551C3.26556 14.9629 7.02932 11.4877 11.6043 11.4877C12.1185 11.4877 12.6223 11.5319 13.1121 11.6155L13.0594 11.608C13.0829 13.3461 13.0124 15.0851 13.0124 16.8231C12.6148 16.6793 12.1561 16.5957 11.6776 16.5957C9.9217 16.5957 8.42804 17.718 7.87532 19.285L7.86686 19.3132C7.74184 19.7146 7.66946 20.1761 7.66946 20.6536C7.66946 20.8473 7.68168 21.039 7.70424 21.227L7.70236 21.2045C8.01444 23.1277 9.6632 24.5791 11.6513 24.5791C11.7086 24.5791 11.765 24.5781 11.8214 24.5753H11.813C13.1882 24.534 14.382 23.7942 15.0569 22.701L15.0663 22.684C15.3173 22.3344 15.4893 21.9114 15.5467 21.4517L15.5476 21.4385C15.6651 19.3358 15.6181 17.2452 15.6294 15.1424C15.6407 10.4086 15.6181 5.68603 15.6529 0.964406L15.6566 0.967226Z" fill="black"/>
</svg>
